<svg width="44" height="44" viewBox="0 0 44 44" fill="none" xmlns="http://www.w3.org/2000/svg">
<g clip-path="url(#clip0_94_717)">
<path d="M43.3419 27.3203C40.4025 39.1123 28.4553 46.2805 16.6801 43.341C4.88776 40.4016 -2.28046 28.4549 0.659117 16.6799C3.59852 4.88788 15.5284 -2.28034 27.3207 0.65924C39.0959 3.58146 46.2814 15.5281 43.3419 27.3203Z" fill="url(#paint0_linear_94_717)"/>
<path d="M32.4748 19.2586C32.9045 16.3367 30.6873 14.7555 27.6279 13.7071L28.6248 9.73674L26.2186 9.13517L25.2561 13.0024C24.6201 12.8477 23.967 12.693 23.3139 12.5555L24.2764 8.67111L21.8701 8.06955L20.8904 12.0227C20.3576 11.9024 19.842 11.782 19.3436 11.6617V11.6446L16.0092 10.8196L15.3732 13.3977C15.3732 13.3977 17.1607 13.8102 17.1264 13.8274C18.1061 14.068 18.2779 14.7211 18.2436 15.2367L17.1092 19.7571C17.1779 19.7742 17.2639 19.7914 17.367 19.843C17.2811 19.8258 17.1951 19.8086 17.1092 19.7742L15.5279 26.0992C15.4076 26.3914 15.0982 26.8383 14.4279 26.6664C14.4451 26.7008 12.6748 26.2367 12.6748 26.2367L11.4717 29.0039L14.617 29.7946C15.2014 29.9492 15.7686 30.0867 16.3357 30.2414L15.3389 34.2461L17.7451 34.8477L18.742 30.8774C19.3951 31.0492 20.0482 31.2211 20.667 31.3758L19.6873 35.3289L22.0936 35.9305L23.0904 31.9258C27.2154 32.6992 30.3092 32.3899 31.5982 28.6602C32.6467 25.6696 31.5467 23.9336 29.3811 22.7992C30.9795 22.4383 32.1654 21.3899 32.4748 19.2586ZM26.9576 26.993C26.2186 29.9836 21.1654 28.368 19.5326 27.9555L20.8561 22.6446C22.4889 23.0571 27.7482 23.8649 26.9576 26.993ZM27.7139 19.2071C27.0264 21.9399 22.8326 20.5477 21.4748 20.2039L22.6779 15.3914C24.0357 15.7352 28.4186 16.3711 27.7139 19.2071Z" fill="white"/>
</g>
<defs>
<linearGradient id="paint0_linear_94_717" x1="21.9881" y1="-0.0104379" x2="21.9881" y2="43.9957" gradientUnits="userSpaceOnUse">
<stop stop-color="#F9AA4B"/>
<stop offset="1" stop-color="#F7931A"/>
</linearGradient>
<clipPath id="clip0_94_717">
<rect width="44" height="44" fill="white"/>
</clipPath>
</defs>
</svg>
