<svg xmlns="http://www.w3.org/2000/svg" width="24" height="24" viewBox="0 0 24 24" fill="none">
<path d="M11.613 23.8822C18.0267 23.8822 23.226 18.6802 23.226 12.2632C23.226 5.84623 18.0267 0.644226 11.613 0.644226C5.19932 0.644226 0 5.84623 0 12.2632C0 18.6802 5.19932 23.8822 11.613 23.8822Z" fill="#EC3363"/>
<path fill-rule="evenodd" clip-rule="evenodd" d="M11.0821 19.1302C11.0441 19.0945 11.0142 19.051 10.9945 19.0026C10.9749 18.9543 10.9658 18.9023 10.9681 18.8502V17.7242C10.1871 17.6492 9.51707 17.4612 8.95807 17.1612C8.40007 16.8612 7.97707 16.4952 7.68907 16.0612C7.40925 15.6496 7.24899 15.1684 7.22607 14.6712C7.22663 14.6272 7.23624 14.5839 7.2543 14.5438C7.27237 14.5037 7.2985 14.4678 7.33107 14.4382C7.36396 14.4046 7.40336 14.378 7.44686 14.3602C7.49036 14.3423 7.53705 14.3334 7.58407 14.3342H9.04807C9.17807 14.3342 9.27807 14.3582 9.34807 14.4062C9.41907 14.4542 9.48807 14.5322 9.55207 14.6392C9.67207 15.0032 9.92407 15.3092 10.3091 15.5552C10.6941 15.8012 11.2231 15.9252 11.8951 15.9252C12.6441 15.9252 13.2101 15.7982 13.5951 15.5472C13.9801 15.2952 14.1731 14.9502 14.1731 14.5102C14.1766 14.376 14.1524 14.2426 14.102 14.1182C14.0515 13.9938 13.976 13.8811 13.8801 13.7872C13.6851 13.5952 13.3901 13.4262 12.9931 13.2812C12.4178 13.0825 11.8342 12.9083 11.2441 12.7592C9.96407 12.4592 9.02607 12.0632 8.43007 11.5702C7.83307 11.0782 7.53507 10.3702 7.53507 9.45021C7.53507 8.61421 7.84107 7.90722 8.45407 7.32922C9.06707 6.75022 9.90407 6.39722 10.9681 6.26921V5.15921C10.9681 5.04221 11.0061 4.94922 11.0821 4.87922C11.157 4.80985 11.256 4.77222 11.3581 4.77422H12.3671C12.4871 4.77422 12.5811 4.80922 12.6521 4.87922C12.7221 4.94922 12.7571 5.04221 12.7571 5.15921V6.30122C13.4621 6.39722 14.0671 6.60322 14.5711 6.91922C15.0761 7.23522 15.4611 7.60222 15.7271 8.01922C15.9921 8.43722 16.1371 8.84422 16.1571 9.24122C16.1576 9.28605 16.1491 9.33053 16.1321 9.372C16.115 9.41347 16.0898 9.45106 16.0578 9.48253C16.0259 9.514 15.9879 9.5387 15.9462 9.55514C15.9045 9.57158 15.8599 9.57943 15.8151 9.57822H14.2701C14.0431 9.57822 13.8851 9.48221 13.7991 9.28822C13.7341 8.94622 13.5191 8.66021 13.1561 8.42921C12.7931 8.19921 12.3401 8.08422 11.7971 8.08422C11.2011 8.08422 10.7321 8.19622 10.3901 8.42122C10.0481 8.64621 9.87807 8.97322 9.87807 9.40122C9.87807 9.69122 9.96207 9.93121 10.1301 10.1242C10.2981 10.3172 10.5701 10.4892 10.9431 10.6382C11.3181 10.7882 11.8521 10.9492 12.5461 11.1202C13.5111 11.3352 14.2791 11.5762 14.8481 11.8432C15.4181 12.1112 15.8381 12.4492 16.1091 12.8562C16.3801 13.2632 16.5161 13.7822 16.5161 14.4142C16.5161 15.3462 16.1761 16.1012 15.4991 16.6792C14.8211 17.2582 13.9071 17.6062 12.7571 17.7242V18.8482C12.7597 18.8997 12.7518 18.9513 12.7337 18.9996C12.7157 19.0479 12.6879 19.0921 12.6521 19.1292C12.6141 19.165 12.5692 19.1927 12.5203 19.2108C12.4713 19.2288 12.4192 19.2368 12.3671 19.2342H11.3581C11.256 19.2362 11.157 19.1996 11.0821 19.1302Z" fill="white"/>
</svg>