<svg xmlns="http://www.w3.org/2000/svg" width="382" height="702" viewBox="0 0 382 702" fill="none">
<mask id="path-1-inside-1_94_665" fill="white">
<path d="M303.538 352.342C306.016 349.269 308.44 346.214 310.811 343.177C353.848 288.052 377.606 241.526 381.423 204.888C385.07 169.886 370.148 144.936 337.074 130.734C234.927 81.0289 141.225 51.7082 72.806 30.2981C45.675 21.8085 22.2443 14.4769 3.6703 7.56875C-28.9921 -4.51733 -79.8383 -0.105039 -135.831 19.6728C-192.998 39.8657 -246.885 73.4074 -283.674 111.698C-354.444 189.307 -474.202 271.463 -555.527 314.96C-579.99 328.079 -594.806 349.501 -598.374 376.912C-604.611 424.819 -575.864 485.517 -523.351 535.317L-523.354 535.314C-470.452 585.996 -418.119 634.075 -359.595 665.294C-328.042 682.126 -297.148 692.877 -265.146 698.161C-229.596 704.031 -193.638 703.045 -155.217 695.146C-120.757 688.639 -71.6296 665.724 -13.1577 628.88C42.5039 593.806 104.253 547.324 160.714 497.997C217.105 448.73 266.255 398.587 303.538 352.342ZM-580.055 337.182C-573.398 328.925 -564.903 321.97 -554.69 316.494C-473.239 272.929 -353.283 190.632 -282.391 112.887C-245.797 74.8019 -192.156 41.4183 -135.237 21.3124C-79.6236 1.66869 -29.212 -2.74628 3.07081 9.1993C21.687 16.1215 45.1376 23.4599 72.293 31.9573C140.658 53.3509 234.288 82.6489 336.354 132.313C368.678 146.194 383.244 170.542 379.686 204.697C375.902 241.007 352.265 287.237 309.43 342.103C271.428 390.75 219.615 444.216 159.557 496.685C103.161 545.956 41.489 592.38 -14.0994 627.408C-72.3884 664.136 -121.308 686.97 -155.567 693.441C-193.788 701.298 -229.537 702.281 -264.871 696.446C-296.679 691.194 -327.396 680.503 -358.777 663.763C-417.104 632.649 -469.336 584.659 -522.146 534.065L-522.149 534.062C-574.262 484.64 -602.805 424.514 -596.638 377.148C-594.637 361.755 -589.009 348.289 -580.055 337.182Z"/>
</mask>
<path d="M303.538 352.342L301.972 351.085L301.972 351.085L303.538 352.342ZM310.811 343.177L309.225 341.944L309.225 341.943L310.811 343.177ZM381.423 204.888L383.416 205.109L383.416 205.109L381.423 204.888ZM337.074 130.734L336.292 132.566L336.248 132.547L336.205 132.526L337.074 130.734ZM72.806 30.2981L73.3931 28.3939L73.3931 28.3939L72.806 30.2981ZM3.6703 7.56875L4.35529 5.69795L4.35844 5.69912L3.6703 7.56875ZM-135.831 19.6728L-136.514 17.7907L-136.514 17.7907L-135.831 19.6728ZM-283.674 111.698L-285.161 110.349L-285.144 110.33L-285.126 110.311L-283.674 111.698ZM-555.527 314.96L-556.487 313.201L-556.485 313.2L-555.527 314.96ZM-598.374 376.912L-596.387 377.183L-596.387 377.184L-598.374 376.912ZM-523.351 535.317L-521.833 534.026L-524.727 536.758L-523.351 535.317ZM-523.354 535.314L-524.873 536.604L-521.971 533.88L-523.354 535.314ZM-359.595 665.294L-360.53 667.052L-359.595 665.294ZM-265.146 698.161L-265.458 700.131L-265.459 700.131L-265.146 698.161ZM-155.217 695.146L-155.636 693.191L-155.621 693.188L-155.605 693.185L-155.217 695.146ZM-13.1577 628.88L-12.0775 630.569L-13.1577 628.88ZM160.714 497.997L162.041 499.502L160.714 497.997ZM-580.055 337.182L-578.489 338.439L-578.489 338.439L-580.055 337.182ZM-554.69 316.494L-555.65 314.734L-555.648 314.733L-554.69 316.494ZM-282.391 112.887L-283.879 111.539L-283.862 111.52L-283.844 111.501L-282.391 112.887ZM-135.237 21.3124L-135.919 19.4302L-135.919 19.4302L-135.237 21.3124ZM3.07081 9.1993L3.75577 7.3285L3.75878 7.32962L3.07081 9.1993ZM72.293 31.9573L72.88 30.0531L72.8801 30.0531L72.293 31.9573ZM336.354 132.313L335.572 134.145L335.528 134.126L335.485 134.105L336.354 132.313ZM379.686 204.697L381.679 204.918L381.679 204.918L379.686 204.697ZM309.43 342.103L311.015 343.336L311.014 343.337L309.43 342.103ZM159.557 496.685L158.229 495.18L158.229 495.18L159.557 496.685ZM-14.0994 627.408L-13.0191 629.097L-13.0192 629.097L-14.0994 627.408ZM-155.567 693.441L-155.987 691.485L-155.971 691.482L-155.955 691.479L-155.567 693.441ZM-264.871 696.446L-265.184 698.416L-265.184 698.416L-264.871 696.446ZM-358.777 663.763L-357.842 662.004L-357.842 662.004L-358.777 663.763ZM-522.146 534.065L-523.529 535.499L-523.604 535.426L-523.672 535.346L-522.146 534.065ZM-522.149 534.062L-520.773 532.621L-520.693 532.696L-520.622 532.78L-522.149 534.062ZM-596.638 377.148L-594.651 377.419L-594.651 377.419L-596.638 377.148ZM301.972 351.085C304.444 348.02 306.861 344.973 309.225 341.944L312.396 344.409C310.019 347.456 307.588 350.519 305.103 353.6L301.972 351.085ZM309.225 341.943C352.208 286.889 375.673 240.731 379.43 204.667L383.416 205.109C379.539 242.321 355.489 289.215 312.396 344.41L309.225 341.943ZM379.43 204.667C381.219 187.498 378.441 172.963 371.3 161.023C364.157 149.08 352.534 139.54 336.292 132.566L337.855 128.902C354.688 136.13 367.063 146.166 374.738 158.999C382.415 171.835 385.274 187.276 383.416 205.109L379.43 204.667ZM336.205 132.526C234.208 82.8943 140.636 53.6117 72.2189 32.2023L73.3931 28.3939C141.814 49.8047 235.645 79.1636 337.942 128.941L336.205 132.526ZM72.219 32.2023C45.1062 23.7184 21.6175 16.3693 2.98218 9.43838L4.35844 5.69912C22.8712 12.5845 46.2438 19.8986 73.3931 28.3939L72.219 32.2023ZM2.98534 9.43955C-29.0151 -2.40155 -79.3105 1.83173 -135.149 21.555L-136.514 17.7907C-80.366 -2.0418 -28.9692 -6.63309 4.35529 5.69795L2.98534 9.43955ZM-135.149 21.555C-192.064 41.659 -245.674 75.0456 -282.221 113.084L-285.126 110.311C-248.095 71.7692 -193.932 38.0724 -136.514 17.7907L-135.149 21.555ZM-282.186 113.046C-353.159 190.878 -473.126 273.16 -554.569 316.721L-556.485 313.2C-475.278 269.765 -355.729 187.736 -285.161 110.349L-282.186 113.046ZM-554.567 316.72C-578.47 329.538 -592.902 350.409 -596.387 377.183L-600.361 376.64C-596.71 348.594 -581.511 326.62 -556.487 313.201L-554.567 316.72ZM-596.387 377.184C-602.507 424.191 -574.26 484.293 -521.976 533.876L-524.727 536.758C-577.468 486.741 -606.715 425.446 -600.361 376.64L-596.387 377.184ZM-524.87 536.608L-524.873 536.604L-521.836 534.023L-521.833 534.026L-524.87 536.608ZM-521.971 533.88C-469.053 584.578 -416.905 632.465 -358.66 663.536L-360.53 667.052C-419.334 635.684 -471.851 587.414 -524.737 536.748L-521.971 533.88ZM-358.66 663.536C-327.281 680.274 -296.596 690.947 -264.833 696.192L-265.459 700.131C-297.699 694.807 -328.802 683.977 -360.53 667.052L-358.66 663.536ZM-264.833 696.192C-229.548 702.018 -193.839 701.045 -155.636 693.191L-154.798 697.101C-193.437 705.046 -229.644 706.044 -265.458 700.131L-264.833 696.192ZM-155.605 693.185C-121.53 686.75 -72.6638 664.005 -14.2379 627.19L-12.0775 630.569C-70.5954 667.442 -119.985 690.528 -154.829 697.108L-155.605 693.185ZM-14.2379 627.19C41.3254 592.179 102.992 545.76 159.386 496.492L162.041 499.502C105.513 548.888 43.6824 595.434 -12.0775 630.569L-14.2379 627.19ZM159.386 496.492C215.712 447.283 264.777 397.221 301.972 351.085L305.103 353.6C267.733 399.953 218.498 450.178 162.041 499.502L159.386 496.492ZM-581.62 335.925C-574.785 327.446 -566.079 320.327 -555.65 314.734L-553.73 318.253C-563.727 323.614 -572.01 330.403 -578.489 338.439L-581.62 335.925ZM-555.648 314.733C-474.315 271.232 -354.568 189.061 -283.879 111.539L-280.904 114.236C-351.998 192.203 -472.163 274.626 -553.732 318.254L-555.648 314.733ZM-283.844 111.501C-247.007 73.1635 -193.09 39.6249 -135.919 19.4302L-134.554 23.1945C-191.223 43.2117 -244.587 76.4402 -280.939 114.274L-283.844 111.501ZM-135.919 19.4302C-80.154 -0.267118 -29.1906 -4.86264 3.75577 7.3285L2.38585 11.0701C-29.2333 -0.629931 -79.0931 3.6045 -134.554 23.1945L-135.919 19.4302ZM3.75878 7.32962C22.3138 14.2291 45.7065 21.5499 72.88 30.0531L71.7059 33.8615C44.5687 25.3697 21.0601 18.0139 2.38283 11.069L3.75878 7.32962ZM72.8801 30.0531C141.247 51.4474 235.007 80.7835 337.222 130.52L335.485 134.105C233.57 84.5143 140.069 55.2544 71.7059 33.8615L72.8801 30.0531ZM337.135 130.481C353.592 137.548 365.691 147.353 373.195 159.89C380.7 172.429 383.493 187.508 381.679 204.918L377.693 204.476C379.437 187.73 376.726 173.559 369.757 161.915C362.786 150.269 351.439 140.959 335.572 134.145L337.135 130.481ZM381.679 204.918C377.835 241.804 353.904 288.401 311.015 343.336L307.844 340.87C350.626 286.073 373.969 240.211 377.693 204.476L381.679 204.918ZM311.014 343.337C272.918 392.105 221.012 445.661 160.884 498.191L158.229 495.18C218.219 442.771 269.939 389.394 307.845 340.869L311.014 343.337ZM160.884 498.191C104.422 547.52 42.6675 594.008 -13.0191 629.097L-15.1796 625.718C40.3105 590.753 101.901 544.392 158.229 495.18L160.884 498.191ZM-13.0192 629.097C-71.3534 665.854 -120.535 688.859 -155.18 695.402L-155.955 691.479C-122.081 685.081 -73.4233 662.418 -15.1796 625.718L-13.0192 629.097ZM-155.148 695.396C-193.587 703.298 -229.585 704.294 -265.184 698.416L-264.558 694.477C-229.489 700.268 -193.989 699.298 -155.987 691.485L-155.148 695.396ZM-265.184 698.416C-297.23 693.124 -328.157 682.355 -359.712 665.521L-357.842 662.004C-326.636 678.651 -296.128 689.264 -264.558 694.477L-265.184 698.416ZM-359.712 665.521C-418.318 634.258 -470.735 586.077 -523.529 535.499L-520.763 532.631C-467.936 583.241 -415.889 631.039 -357.842 662.004L-359.712 665.521ZM-523.672 535.346L-523.675 535.343L-520.622 532.78L-520.619 532.784L-523.672 535.346ZM-523.524 535.503C-575.863 485.866 -604.909 425.144 -598.625 376.876L-594.651 377.419C-600.7 423.884 -572.66 483.413 -520.773 532.621L-523.524 535.503ZM-598.625 376.876C-596.58 361.149 -590.82 347.336 -581.62 335.925L-578.489 338.439C-587.198 349.243 -592.693 362.361 -594.651 377.419L-598.625 376.876Z" fill="url(#paint0_linear_94_665)" mask="url(#path-1-inside-1_94_665)"/>
<defs>
<linearGradient id="paint0_linear_94_665" x1="-129.501" y1="18.5" x2="-93.0699" y2="680.904" gradientUnits="userSpaceOnUse">
<stop stop-color="#FF59F8" stop-opacity="0"/>
<stop offset="0.345487" stop-color="#AE72FF"/>
<stop offset="0.491082" stop-color="#90E9ED"/>
<stop offset="0.683074" stop-color="#5CD167"/>
<stop offset="1" stop-color="#FFEE00" stop-opacity="0"/>
</linearGradient>
</defs>
</svg>