<svg width="44" height="44" viewBox="0 0 44 44" fill="none" xmlns="http://www.w3.org/2000/svg">
<g clip-path="url(#clip0_94_728)">
<circle cx="22" cy="22" r="22" fill="#7F6EE9"/>
<path d="M22.4879 5.54686V5.56248C22.5036 5.64058 22.5036 5.7343 22.5036 5.82801V17.0898C22.4879 17.1523 22.4411 17.1679 22.3942 17.1992C22.0662 17.3554 21.7538 17.4959 21.4258 17.6365C20.9728 17.8396 20.5042 18.0582 20.0513 18.2613L18.4112 19.011C17.9582 19.2141 17.5053 19.4172 17.0679 19.6202C16.5368 19.8701 15.9901 20.1044 15.4591 20.3543C15.0061 20.5574 14.5531 20.7761 14.0845 20.9791C13.7097 21.1509 13.3348 21.3071 12.9755 21.4789C12.9443 21.4946 12.9131 21.5102 12.8818 21.5102C12.8662 21.5102 12.8662 21.5102 12.8506 21.4946L13.2723 20.7917C14.0845 19.4484 14.8811 18.1207 15.6934 16.7774C16.5525 15.3404 17.4272 13.9034 18.2862 12.4664C19.0828 11.1387 19.8951 9.81104 20.6917 8.48336C21.2696 7.51494 21.8632 6.54652 22.4411 5.5781C22.4567 5.54686 22.4723 5.53124 22.4723 5.5H22.4879C22.4723 5.51562 22.4879 5.53124 22.4879 5.54686Z" fill="#F3F3F3"/>
<path d="M32.0768 21.4946L32.0924 21.5102L29.7963 22.8691L22.58 27.1333C22.5488 27.1489 22.5176 27.1645 22.5019 27.1801C22.4551 27.1801 22.4551 27.1333 22.4551 27.1177V26.9771V17.3241C22.4551 17.2773 22.4551 17.2148 22.4707 17.1679C22.4863 17.1054 22.5332 17.1211 22.58 17.1367C22.7831 17.2304 23.0018 17.3241 23.2048 17.4178C23.814 17.699 24.4232 17.9801 25.0323 18.2457C25.5634 18.48 26.0788 18.7299 26.6099 18.9642C27.141 19.1985 27.6721 19.4484 28.2031 19.6827C28.6561 19.8857 29.1247 20.1044 29.5777 20.3075C30.0306 20.5105 30.4992 20.7292 30.9522 20.9323C31.3114 21.0885 31.6707 21.2603 32.03 21.4165C32.03 21.4633 32.0456 21.479 32.0768 21.4946Z" fill="#8A8DA7"/>
<path d="M22.4865 36.88C22.4865 36.8956 22.4709 36.9112 22.4709 36.9268H22.4552C22.4552 36.8956 22.424 36.88 22.4084 36.8487C21.44 35.4898 20.4715 34.1153 19.5031 32.7564C18.5191 31.3662 17.5194 29.9604 16.5354 28.5703C15.5826 27.227 14.6141 25.8681 13.6613 24.5248C13.4114 24.1655 13.1615 23.8219 12.9116 23.4626C12.896 23.4314 12.8804 23.4158 12.8491 23.3689C12.896 23.3689 12.9272 23.4002 12.9428 23.4158C14.3018 24.2124 15.645 25.009 17.004 25.8056C18.5659 26.7272 20.1123 27.6487 21.6742 28.5703L22.4709 29.0389C22.5021 29.0701 22.5021 29.1014 22.5021 29.1326V36.6613C22.5021 36.7394 22.5021 36.8175 22.4865 36.88Z" fill="#F3F3F3"/>
<path d="M12.8335 21.5258V21.5102C13.3333 21.2916 13.8175 21.0573 14.3174 20.8386C14.9578 20.5418 15.5982 20.2607 16.2386 19.9639C16.7228 19.7452 17.2226 19.5109 17.7068 19.2922C18.4253 18.9642 19.1282 18.6518 19.8467 18.3238C20.3309 18.1051 20.8152 17.8865 21.315 17.6522C21.6586 17.496 22.0179 17.3398 22.3615 17.1836C22.3927 17.168 22.4396 17.1523 22.4552 17.1211C22.4708 17.1211 22.4708 17.1367 22.4552 17.1523V27.0708C22.4552 27.1177 22.4396 27.1646 22.4708 27.1958C22.4396 27.2427 22.4084 27.1958 22.3927 27.1802C22.2522 27.1021 22.1116 27.024 21.971 26.9303C18.9564 25.1496 15.9262 23.3534 12.9116 21.5727C12.896 21.5571 12.8647 21.5415 12.8335 21.5258Z" fill="#C5C8D9"/>
<path d="M32.0461 23.3689H32.0617C32.0617 23.4002 32.0304 23.4314 32.0148 23.4626C29.1408 27.5081 26.2668 31.5693 23.3928 35.6148C23.096 36.0365 22.7836 36.4582 22.4868 36.88C22.4712 36.8643 22.4712 36.8487 22.4712 36.8331V36.7394V29.1638V29.0233C23.1272 28.6328 23.7676 28.2579 24.4237 27.8674C26.954 26.3679 29.4844 24.884 31.9992 23.3845C32.0148 23.4002 32.0304 23.3845 32.0461 23.3689Z" fill="#C5C8D9"/>
<path d="M22.4712 17.1523V17.121V17.0273V5.68743C22.4712 5.64057 22.4556 5.60933 22.4868 5.56247C25.6576 10.8263 28.8284 16.0745 31.9836 21.3384C32.0148 21.3852 32.0617 21.4477 32.0773 21.5102C31.8586 21.4321 31.6556 21.3227 31.4525 21.229C31.2026 21.1197 30.9371 20.9947 30.6871 20.8854C30.5309 20.8073 30.3591 20.7448 30.2029 20.6667C29.9374 20.5418 29.6719 20.4324 29.4063 20.3075C29.2501 20.245 29.0939 20.1669 28.9377 20.0888L27.9068 19.6202C27.735 19.5421 27.5632 19.464 27.3758 19.3859L26.626 19.0579C26.4698 18.9954 26.3136 18.9173 26.1574 18.8392L25.1265 18.3706C24.9547 18.2925 24.7829 18.2144 24.5955 18.1363L23.8457 17.8083C23.6739 17.7302 23.5177 17.6521 23.3459 17.574C23.0491 17.4334 22.7523 17.2929 22.4399 17.1679C22.4868 17.1523 22.4712 17.1523 22.4712 17.1523Z" fill="#C5C8D9"/>
</g>
<defs>
<clipPath id="clip0_94_728">
<rect width="44" height="44" fill="white"/>
</clipPath>
</defs>
</svg>
