<svg xmlns="http://www.w3.org/2000/svg" width="32" height="27" viewBox="0 0 32 27" fill="none">
<g clip-path="url(#clip0_114_1210)">
<circle cx="16" cy="14.5" r="12" fill="#11CA87"/>
<path d="M12.584 21.5V16.874H11.18V15.722H12.584V14.246H11.18V13.094H12.584V8.648H14.456L16.166 13.094H18.29V8.648H19.712V13.094H21.116V14.246H19.712V15.722H21.116V16.874H19.712V21.5H17.822L16.112 16.874H13.988V21.5H12.584ZM13.988 15.722H15.68L15.14 14.246H13.952L13.988 15.722ZM18.29 18.962H18.362L18.308 16.874H17.552L18.29 18.962ZM13.952 13.094H14.708L13.952 10.862H13.88L13.952 13.094ZM17.12 15.722H18.326L18.29 14.246H16.58L17.12 15.722Z" fill="white"/>
</g>
<defs>
<clipPath id="clip0_114_1210">
<rect width="32" height="26" fill="white" transform="translate(0 0.5)"/>
</clipPath>
</defs>
</svg>