<svg xmlns="http://www.w3.org/2000/svg" width="40" height="30" viewBox="0 0 40 30" fill="none">
<path d="M18.4724 2.59702L15.8795 0.445557C6.11804 5.97789 1.54236 12.2786 0.322173 19.3477C-0.592963 25.1874 1.69488 29.7976 7.49075 29.7976C11.6089 29.7976 15.5745 27.0315 16.4896 22.4212C17.2522 17.0425 14.2017 13.8154 10.3887 13.047C11.9139 7.822 18.3199 2.59702 18.4724 2.59702ZM31.5893 12.7396C33.2671 7.66833 39.368 2.59702 39.5205 2.59702L36.9277 0.445557C27.1662 5.97789 22.5905 12.2786 21.3703 19.3477C20.4552 25.1874 22.743 29.7976 28.5389 29.7976C32.657 29.7976 36.6226 27.0315 37.3852 22.4212C38.3004 17.0425 35.4024 13.508 31.5893 12.7396Z" fill="url(#paint0_radial_114_1121)"/>
<defs>
<radialGradient id="paint0_radial_114_1121" cx="0" cy="0" r="1" gradientUnits="userSpaceOnUse" gradientTransform="translate(11.3823 5.47734) rotate(60.9542) scale(27.819 33.4212)">
<stop stop-color="#F8A01C"/>
<stop offset="1" stop-color="#EC3363"/>
</radialGradient>
</defs>
</svg>