<svg width="45" height="45" viewBox="0 0 45 45" fill="none" xmlns="http://www.w3.org/2000/svg">
<path fill-rule="evenodd" clip-rule="evenodd" d="M35.0857 9.89353C35.8868 10.174 36.4222 10.9294 36.4222 11.7782V24.1954C36.4222 27.6659 35.1608 30.9787 32.9333 33.5454C31.8132 34.8379 30.396 35.8444 28.8908 36.6584L22.3678 40.182L15.8338 36.6565C14.3268 35.8425 12.9078 34.8379 11.7858 33.5435C9.5565 30.9769 8.2915 27.6622 8.2915 24.188V11.7782C8.2915 10.9294 8.82684 10.174 9.628 9.89353L21.695 5.65303C22.124 5.5027 22.5915 5.5027 23.0187 5.65303L35.0857 9.89353Z" stroke="#1F719D" stroke-width="1.5" stroke-linecap="round" stroke-linejoin="round"/>
<path d="M17.5913 22.3489L21.06 25.8194L28.2063 18.6731" stroke="#1F719D" stroke-width="1.5" stroke-linecap="round" stroke-linejoin="round"/>
</svg>
