<svg width="44" height="44" viewBox="0 0 44 44" fill="none" xmlns="http://www.w3.org/2000/svg">
<g clip-path="url(#clip0_94_739)">
<path d="M43.9608 21.9923C43.9608 34.0825 34.1604 43.8829 22.0702 43.8829C9.98052 43.8829 0.179688 34.0825 0.179688 21.9923C0.179688 9.90239 9.98052 0.101776 22.0702 0.101776C34.1604 0.101776 43.9608 9.90239 43.9608 21.9923Z" fill="#1BA27A"/>
<path d="M32.3444 11.1403H11.6162V16.1445H19.4782V23.4997H24.4824V16.1445H32.3444V11.1403Z" fill="white"/>
<path d="M22.0274 24.2832C15.5237 24.2832 10.2509 23.2539 10.2509 21.984C10.2509 20.7144 15.5235 19.6848 22.0274 19.6848C28.5311 19.6848 33.8036 20.7144 33.8036 21.984C33.8036 23.2539 28.5311 24.2832 22.0274 24.2832ZM35.2504 22.3673C35.2504 20.7299 29.3303 19.4027 22.0274 19.4027C14.7247 19.4027 8.8042 20.7299 8.8042 22.3673C8.8042 23.8092 13.3949 25.0106 19.478 25.2768V35.8355H24.4818V25.2809C30.6118 25.0231 35.2504 23.8167 35.2504 22.3673Z" fill="white"/>
</g>
<defs>
<clipPath id="clip0_94_739">
<rect width="44" height="44" fill="white"/>
</clipPath>
</defs>
</svg>
