<svg width="45" height="45" viewBox="0 0 45 45" fill="none" xmlns="http://www.w3.org/2000/svg">
<path d="M32.7573 20.5417C35.6949 20.5417 38.078 18.1604 38.078 15.2228C38.078 12.2852 35.6949 9.90381 32.7573 9.90381" stroke="#EC3363" stroke-width="1.5" stroke-linecap="round" stroke-linejoin="round"/>
<path d="M35.2036 26.322C36.0809 26.3825 36.9531 26.5069 37.8118 26.7001C39.005 26.9337 40.4402 27.4228 40.9511 28.4933C41.2771 29.179 41.2771 29.9772 40.9511 30.6646C40.4419 31.7351 39.005 32.2225 37.8118 32.4678" stroke="#EC3363" stroke-width="1.5" stroke-linecap="round" stroke-linejoin="round"/>
<path d="M12.0321 20.5417C9.09445 20.5417 6.71143 18.1604 6.71143 15.2228C6.71143 12.2852 9.09445 9.90381 12.0321 9.90381" stroke="#EC3363" stroke-width="1.5" stroke-linecap="round" stroke-linejoin="round"/>
<path d="M9.58584 26.322C8.70859 26.3825 7.83638 26.5069 6.97762 26.7001C5.78442 26.9337 4.34923 27.4228 3.84002 28.4933C3.51231 29.179 3.51231 29.9772 3.84002 30.6646C4.34755 31.7351 5.78442 32.2225 6.97762 32.4678" stroke="#EC3363" stroke-width="1.5" stroke-linecap="round" stroke-linejoin="round"/>
<path fill-rule="evenodd" clip-rule="evenodd" d="M22.386 27.4675C28.3386 27.4675 33.4239 28.3683 33.4239 31.9731C33.4239 35.5762 28.3722 36.5106 22.386 36.5106C16.4318 36.5106 11.3481 35.6098 11.3481 32.005C11.3481 28.4002 16.3999 27.4675 22.386 27.4675Z" stroke="#EC3363" stroke-width="1.5" stroke-linecap="round" stroke-linejoin="round"/>
<path fill-rule="evenodd" clip-rule="evenodd" d="M22.386 22.3256C18.4602 22.3256 15.3125 19.1779 15.3125 15.2505C15.3125 11.3247 18.4602 8.177 22.386 8.177C26.3117 8.177 29.4594 11.3247 29.4594 15.2505C29.4594 19.1779 26.3117 22.3256 22.386 22.3256Z" stroke="#EC3363" stroke-width="1.5" stroke-linecap="round" stroke-linejoin="round"/>
</svg>
